<?xml version="1.0" standalone="no"?>
<!DOCTYPE svg PUBLIC "-//W3C//DTD SVG 20010904//EN"
 "http://www.w3.org/TR/2001/REC-SVG-20010904/DTD/svg10.dtd">
<svg version="1.0" xmlns="http://www.w3.org/2000/svg"
 width="500.000000pt" height="500.000000pt" viewBox="0 0 500.000000 500.000000"
 preserveAspectRatio="xMidYMid meet">
<metadata>
Created by potrace 1.11, written by Peter Selinger 2001-2013
</metadata>
<g transform="translate(0.000000,500.000000) scale(0.100000,-0.100000)"
fill="#000000" stroke="none">
<path d="M330 2500 l0 -1400 2180 0 2180 0 0 1400 0 1400 -2180 0 -2180 0 0
-1400z m1520 255 l0 -895 -120 0 -120 0 0 760 0 760 -385 0 -385 0 0 -1015 0
-1016 -122 3 -123 3 -3 1135 c-1 624 0 1141 3 1148 3 9 139 12 630 12 l625 0
0 -895z m510 -255 l0 -1150 -627 2 -628 3 -3 888 -2 888 122 -3 123 -3 3 -757
2 -758 385 0 385 0 0 1020 0 1020 120 0 120 0 0 -1150z m1050 130 l0 -1020
130 0 130 0 2 1018 3 1017 375 0 375 0 0 -1145 0 -1145 -120 0 -120 0 -3 1018
-2 1017 -130 0 -130 0 -2 -1017 -3 -1018 -372 -3 -373 -2 0 1015 0 1015 -135
0 -135 0 0 -1015 0 -1015 -120 0 -120 0 0 1150 0 1150 375 0 375 0 0 -1020z"/>
</g>
</svg>
